<svg width="20" height="20" viewBox="0 0 20 20" fill="none" xmlns="http://www.w3.org/2000/svg">
<path d="M6.93594 0H1.82922C0.820625 0 0 0.820625 0 1.82922V6.93598C0 7.94461 0.820625 8.7652 1.82922 8.7652H6.93598C7.94461 8.7652 8.7652 7.94457 8.7652 6.93594V1.82922C8.7652 0.820625 7.94461 0 6.93594 0ZM7.14941 6.93594C7.14941 7.05363 7.05363 7.14941 6.93594 7.14941H1.82922C1.71156 7.14941 1.61578 7.05363 1.61578 6.93594V1.82922C1.61578 1.71156 1.71156 1.61578 1.82922 1.61578H6.93594C7.05363 1.61578 7.14941 1.71152 7.14941 1.82922V6.93594Z" fill="url(#paint0_linear)"/>
<path d="M18.1703 0H13.0636C12.0549 0 11.2344 0.820625 11.2344 1.82922V6.93594C11.2344 7.94461 12.055 8.7652 13.0636 8.7652H18.1703C19.179 8.7652 19.9995 7.94457 19.9995 6.93594V1.82922C19.9995 0.820625 19.1789 0 18.1703 0ZM18.3838 6.93594C18.3838 7.05363 18.288 7.14941 18.1703 7.14941H13.0636C12.9459 7.14941 12.8502 7.05363 12.8502 6.93594V1.82922C12.8502 1.71156 12.9459 1.61578 13.0636 1.61578H18.1703C18.288 1.61578 18.3838 1.71152 18.3838 1.82922V6.93594Z" fill="url(#paint1_linear)"/>
<path d="M18.1703 11.2344H13.0636C12.055 11.2344 11.2344 12.055 11.2344 13.0636V18.1704C11.2344 19.179 12.055 19.9996 13.0636 19.9996H18.1703C19.1789 19.9996 19.9995 19.1789 19.9995 18.1704V13.0636C19.9995 12.055 19.179 11.2344 18.1703 11.2344ZM18.3838 18.1704C18.3838 18.288 18.288 18.3838 18.1703 18.3838H13.0636C12.9459 18.3838 12.8502 18.288 12.8502 18.1704V13.0636C12.8502 12.9459 12.9459 12.8502 13.0636 12.8502H18.1703C18.288 12.8502 18.3838 12.9459 18.3838 13.0636V18.1704Z" fill="url(#paint2_linear)"/>
<path d="M6.93594 11.2344H1.82922C0.820625 11.2344 0 12.0549 0 13.0636V18.1704C0 19.1789 0.820625 19.9996 1.82922 19.9996H6.93598C7.94461 19.9996 8.7652 19.1789 8.7652 18.1704V13.0636C8.7652 12.055 7.94461 11.2344 6.93594 11.2344ZM7.14941 18.1704C7.14941 18.288 7.05363 18.3838 6.93594 18.3838H1.82922C1.71156 18.3838 1.61578 18.288 1.61578 18.1704V13.0636C1.61578 12.9459 1.71152 12.8502 1.82922 12.8502H6.93594C7.05363 12.8502 7.14941 12.9459 7.14941 13.0636V18.1704Z" fill="url(#paint3_linear)"/>
<defs>
<linearGradient id="paint0_linear" x1="4.3826" y1="0" x2="4.3826" y2="8.7652" gradientUnits="userSpaceOnUse">
<stop offset="0.9999" stop-color="#3D697F"/>
<stop offset="1" stop-color="white" stop-opacity="0"/>
</linearGradient>
<linearGradient id="paint1_linear" x1="15.617" y1="0" x2="15.617" y2="8.7652" gradientUnits="userSpaceOnUse">
<stop offset="0.9999" stop-color="#3D697F"/>
<stop offset="1" stop-color="white" stop-opacity="0"/>
</linearGradient>
<linearGradient id="paint2_linear" x1="15.617" y1="11.2344" x2="15.617" y2="19.9996" gradientUnits="userSpaceOnUse">
<stop offset="0.9999" stop-color="#3D697F"/>
<stop offset="1" stop-color="white" stop-opacity="0"/>
</linearGradient>
<linearGradient id="paint3_linear" x1="4.3826" y1="11.2344" x2="4.3826" y2="19.9996" gradientUnits="userSpaceOnUse">
<stop offset="0.9999" stop-color="#3D697F"/>
<stop offset="1" stop-color="white" stop-opacity="0"/>
</linearGradient>
</defs>
</svg>
