<svg width="20" height="20" viewBox="0 0 20 20" fill="none" xmlns="http://www.w3.org/2000/svg">
<g clip-path="url(#clip0)">
<path d="M19.553 4.6812L10.3611 0.0852829C10.1337 -0.0284276 9.86594 -0.0284276 9.63852 0.0852829L0.4466 4.6812C0.17289 4.81808 0 5.0978 0 5.40382C0 5.70983 0.17289 5.9896 0.4466 6.12643L9.63852 10.7224C9.75227 10.7792 9.87602 10.8077 9.99984 10.8077C10.1236 10.8077 10.2475 10.7792 10.3611 10.7224L19.553 6.12643C19.8268 5.98956 19.9996 5.70987 19.9996 5.40382C19.9996 5.0978 19.8267 4.81804 19.553 4.6812ZM9.99984 9.09654L2.6144 5.40382L9.9998 1.7111L17.3852 5.40382L9.99984 9.09654Z" fill="url(#paint0_linear)"/>
<path d="M19.9145 14.2359C19.715 13.8368 19.2297 13.6751 18.8306 13.8745L10 18.2898L1.16938 13.8745C0.770321 13.675 0.28501 13.8368 0.08548 14.2358C-0.11409 14.6349 0.0477067 15.1202 0.446768 15.3198L9.63868 19.9157C9.75243 19.9726 9.87618 20.001 10 20.001C10.1238 20.001 10.2476 19.9726 10.3613 19.9158L19.5533 15.3198C19.9523 15.1202 20.1141 14.6349 19.9145 14.2359Z" fill="url(#paint1_linear)"/>
<path d="M19.9145 9.63816C19.715 9.2391 19.2297 9.07734 18.8306 9.27687L10 13.6922L1.16938 9.27687C0.770321 9.07734 0.28501 9.2391 0.08548 9.63816C-0.11409 10.0373 0.0477067 10.5225 0.446768 10.7221L9.63868 15.3181C9.75243 15.3749 9.87618 15.4033 10 15.4033C10.1238 15.4033 10.2476 15.3749 10.3613 15.3181L19.5532 10.7221C19.9523 10.5225 20.1141 10.0372 19.9145 9.63816Z" fill="url(#paint2_linear)"/>
</g>
<defs>
<linearGradient id="paint0_linear" x1="9.99982" y1="0" x2="9.99982" y2="10.8077" gradientUnits="userSpaceOnUse">
<stop offset="0.9999" stop-color="#444444"/>
<stop offset="1" stop-color="white" stop-opacity="0"/>
</linearGradient>
<linearGradient id="paint1_linear" x1="10" y1="13.7891" x2="10" y2="20.001" gradientUnits="userSpaceOnUse">
<stop offset="0.9999" stop-color="#444444"/>
<stop offset="1" stop-color="white" stop-opacity="0"/>
</linearGradient>
<linearGradient id="paint2_linear" x1="10" y1="9.19141" x2="10" y2="15.4033" gradientUnits="userSpaceOnUse">
<stop offset="0.9999" stop-color="#444444"/>
<stop offset="1" stop-color="white" stop-opacity="0"/>
</linearGradient>
<clipPath id="clip0">
<rect width="20" height="20" fill="white"/>
</clipPath>
</defs>
</svg>
