<svg width="15" height="15" viewBox="0 0 15 15" fill="none" xmlns="http://www.w3.org/2000/svg">
<g clip-path="url(#clip0)">
<path d="M0.604941 8.10547L14.3931 8.10547C14.7277 8.10547 14.999 7.83418 14.999 7.49955C14.999 7.16489 14.7277 6.89363 14.3931 6.89363L0.604941 6.89363C0.270284 6.89363 -0.000976562 7.16489 -0.000976562 7.49955C-0.000976562 7.83418 0.270284 8.10547 0.604941 8.10547Z" fill="#444444"/>
<path d="M0.176923 7.92934L5.34748 13.0999C5.58411 13.3365 5.96775 13.3365 6.20438 13.0999C6.44099 12.8633 6.44099 12.4796 6.20438 12.243L1.46227 7.50088L6.20438 2.7588C6.44099 2.52217 6.44099 2.13852 6.20438 1.90189C6.08608 1.78356 5.93099 1.72441 5.77592 1.72441C5.62085 1.72441 5.46575 1.78356 5.34745 1.90189L0.176894 7.07244C-0.0597081 7.30907 -0.0597081 7.69271 0.176923 7.92934Z" fill="#444444"/>
</g>
<defs>
<clipPath id="clip0">
<rect width="15" height="15" fill="white" transform="translate(14.999 15) rotate(180)"/>
</clipPath>
</defs>
</svg>
