<svg width="20" height="20" viewBox="0 0 20 20" fill="none" xmlns="http://www.w3.org/2000/svg">
<g clip-path="url(#clip0)">
<path d="M19.3389 7.51137C18.9197 6.94223 18.304 6.57031 17.6052 6.46426C17.4658 6.44309 17.3232 6.43336 17.1828 6.43438H12.7924V3.56551C12.7924 1.59945 11.1929 0 9.22688 0C8.90762 0 8.61828 0.188008 8.48863 0.479766L4.8118 8.75258C4.7659 8.8559 4.74219 8.96766 4.74219 9.0807V19.192C4.74219 19.6382 5.10391 19.9999 5.55008 19.9999H15.9143C15.9227 20 15.9311 20 15.9394 20C16.5671 20 17.1746 19.7769 17.6533 19.37C18.1396 18.9567 18.4602 18.3815 18.5557 17.7518L19.8243 9.47773C19.9304 8.77891 19.758 8.08055 19.3389 7.51137ZM18.227 9.23406L16.9584 17.5082C16.8823 18.0095 16.4454 18.3842 15.9394 18.3842C15.9356 18.3842 15.9316 18.3842 15.9279 18.3841C15.9248 18.3841 15.9218 18.3841 15.9188 18.3841H6.35801V9.25219L9.72348 1.67988C10.5588 1.90004 11.1766 2.66195 11.1766 3.56551V7.24234C11.1766 7.68852 11.5383 8.05023 11.9845 8.05023H17.1871C17.1902 8.05023 17.1932 8.05023 17.1963 8.0502C17.2517 8.04969 17.3077 8.05348 17.3627 8.0618C17.6348 8.10309 17.8746 8.24793 18.0378 8.46957C18.2011 8.69121 18.2682 8.96312 18.227 9.23406Z" fill="url(#paint0_linear)"/>
<path d="M5.55043 18.3846H2.79281C2.22461 18.3846 1.7623 17.9223 1.7623 17.3541V10.9197C1.7623 10.3515 2.22461 9.88922 2.79281 9.88922H5.55043C5.9966 9.88922 6.35832 9.5275 6.35832 9.08133C6.35832 8.63516 5.9966 8.27344 5.55043 8.27344H2.79281C1.33363 8.27344 0.146484 9.46059 0.146484 10.9198V17.3542C0.146484 18.8134 1.33363 20.0005 2.79281 20.0005H5.55043C5.99664 20.0005 6.35832 19.6388 6.35832 19.1926C6.35832 18.7463 5.9966 18.3846 5.55043 18.3846Z" fill="url(#paint1_linear)"/>
</g>
<defs>
<linearGradient id="paint0_linear" x1="12.2985" y1="0" x2="12.2985" y2="20" gradientUnits="userSpaceOnUse">
<stop offset="0.9999" stop-color="#3D697F"/>
<stop offset="1" stop-color="white" stop-opacity="0"/>
</linearGradient>
<linearGradient id="paint1_linear" x1="3.2524" y1="8.27344" x2="3.2524" y2="20.0005" gradientUnits="userSpaceOnUse">
<stop offset="0.9999" stop-color="#3D697F"/>
<stop offset="1" stop-color="white" stop-opacity="0"/>
</linearGradient>
<clipPath id="clip0">
<rect width="20" height="20" fill="white"/>
</clipPath>
</defs>
</svg>
