<svg width="20" height="20" viewBox="0 0 20 20" fill="none" xmlns="http://www.w3.org/2000/svg">
<g clip-path="url(#clip0)">
<path d="M17.3536 1.83789H2.64629C1.18711 1.83789 0 3.02504 0 4.48418V15.5146C0 16.9738 1.18711 18.1609 2.64629 18.1609H17.3536C18.8128 18.1609 19.9999 16.9738 19.9999 15.5146V4.48418C19.9999 3.025 18.8128 1.83789 17.3536 1.83789ZM18.3841 15.5146C18.3841 16.0828 17.9218 16.5451 17.3536 16.5451H2.64629C2.07809 16.5451 1.61578 16.0828 1.61578 15.5146V4.48418C1.61578 3.91598 2.07809 3.45368 2.64629 3.45368H17.3536C17.9218 3.45368 18.3841 3.91598 18.3841 4.48418V15.5146Z" fill="#88919D"/>
<path d="M19.8539 4.02049C19.598 3.65498 19.0944 3.56608 18.7287 3.82194L9.99994 9.93198L1.27122 3.8219C0.90571 3.566 0.401959 3.65494 0.1461 4.02045C-0.10976 4.38596 -0.0208538 4.88971 0.344655 5.14557L9.5367 11.58C9.6758 11.6774 9.83787 11.726 9.99998 11.726C10.162 11.726 10.3242 11.6774 10.4633 11.58L19.6553 5.14561C20.0208 4.88975 20.1097 4.386 19.8539 4.02049Z" fill="#88919D"/>
</g>
<defs>
<clipPath id="clip0">
<rect width="20" height="20" fill="white"/>
</clipPath>
</defs>
</svg>
