<svg width="10" height="18" viewBox="0 0 10 18" fill="none" xmlns="http://www.w3.org/2000/svg">
<path d="M4.93751 8.97464C5.82502 8.97464 6.6926 8.71146 7.43054 8.21839C8.16847 7.72531 8.74362 7.02449 9.08326 6.20454C9.42289 5.38459 9.51176 4.48234 9.33861 3.61189C9.16547 2.74143 8.73809 1.94187 8.11053 1.31431C7.48297 0.686744 6.6834 0.259369 5.81295 0.0862246C4.94249 -0.0869196 4.04024 0.00194428 3.22029 0.341579C2.40034 0.681213 1.69952 1.25636 1.20644 1.9943C0.713372 2.73223 0.450195 3.59981 0.450195 4.48732C0.450195 5.67743 0.922965 6.8188 1.7645 7.66033C2.60604 8.50187 3.7474 8.97464 4.93751 8.97464ZM4.93751 2.69239C5.29252 2.69239 5.63955 2.79766 5.93472 2.99489C6.2299 3.19212 6.45996 3.47245 6.59581 3.80043C6.73167 4.12841 6.76721 4.48931 6.69795 4.83749C6.6287 5.18567 6.45775 5.5055 6.20672 5.75652C5.9557 6.00755 5.63587 6.1785 5.28769 6.24776C4.93951 6.31702 4.57861 6.28147 4.25063 6.14562C3.92265 6.00976 3.64232 5.7797 3.44509 5.48453C3.24786 5.18935 3.14259 4.84232 3.14259 4.48732C3.14312 4.01144 3.3324 3.5552 3.6689 3.2187C4.0054 2.88221 4.46163 2.69293 4.93751 2.69239Z" fill="#EE8208"/>
<path d="M6.57917 12.6103C7.5804 12.419 8.53833 12.0466 9.40593 11.5115C9.54645 11.4244 9.66838 11.3103 9.76473 11.1759C9.86107 11.0415 9.92994 10.8894 9.96738 10.7283C10.0048 10.5673 10.0101 10.4004 9.98289 10.2373C9.9557 10.0742 9.89657 9.91802 9.8089 9.77781C9.72123 9.63759 9.60674 9.51607 9.47201 9.4202C9.33727 9.32432 9.18493 9.25599 9.02373 9.21913C8.86252 9.18226 8.69563 9.17757 8.53261 9.20534C8.36959 9.23311 8.21366 9.29279 8.07376 9.38096C7.14511 9.94694 6.08063 10.2511 4.99314 10.2612C3.90566 10.2713 2.8357 9.98702 1.89669 9.4384C1.61101 9.2694 1.27007 9.22027 0.948304 9.30175C0.626535 9.38322 0.350061 9.58867 0.179232 9.87326C0.00840288 10.1579 -0.0429089 10.4985 0.0364973 10.8207C0.115903 11.143 0.319579 11.4208 0.603065 11.5935C1.43546 12.0852 2.34657 12.4293 3.29616 12.6107L0.459336 15.4476C0.342314 15.5642 0.24944 15.7028 0.18603 15.8553C0.12262 16.0079 0.0899187 16.1715 0.0897982 16.3367C0.0896777 16.5019 0.12214 16.6655 0.185328 16.8181C0.248515 16.9708 0.341187 17.1095 0.458039 17.2263C0.574891 17.3431 0.713629 17.4357 0.866313 17.4988C1.019 17.5619 1.18263 17.5943 1.34784 17.5941C1.51305 17.5939 1.6766 17.5611 1.82913 17.4976C1.98166 17.4341 2.12017 17.3412 2.23674 17.2241L4.93789 14.523L7.63905 17.2241C7.75561 17.3412 7.89412 17.4341 8.04665 17.4976C8.19918 17.5611 8.36273 17.5939 8.52794 17.5941C8.69316 17.5943 8.85679 17.5619 9.00947 17.4988C9.16215 17.4357 9.30089 17.3431 9.41774 17.2263C9.5346 17.1095 9.62727 16.9708 9.69046 16.8182C9.75364 16.6655 9.78611 16.5019 9.78598 16.3367C9.78586 16.1715 9.75316 16.0079 9.68975 15.8553C9.62634 15.7028 9.53347 15.5642 9.41645 15.4476L6.57917 12.6103Z" fill="#EE8208"/>
</svg>
