<svg width="20" height="20" viewBox="0 0 20 20" fill="none" xmlns="http://www.w3.org/2000/svg">
<g clip-path="url(#clip0)">
<path d="M16.4537 7.63687C16.2548 6.6173 15.7614 5.69016 15.0269 4.95563C14.2924 4.22113 13.3652 3.72774 12.3456 3.52879C11.9077 3.44328 11.4834 3.7291 11.3979 4.16703C11.3125 4.605 11.5982 5.02926 12.0362 5.11469C13.4755 5.39547 14.5869 6.50695 14.8677 7.94628C14.943 8.33199 15.2811 8.59964 15.6599 8.59964C15.7111 8.59964 15.7632 8.59476 15.8155 8.58453C16.2534 8.4991 16.5391 8.0748 16.4537 7.63687Z" fill="#88919D"/>
<path d="M19.9773 7.69253C19.7574 5.73566 18.8689 3.8916 17.4756 2.50008C16.0823 1.10852 14.2372 0.222431 12.28 0.00500934C11.8364 -0.0442484 11.4371 0.275321 11.3878 0.718758C11.3386 1.16223 11.6581 1.56165 12.1016 1.61094C15.4204 1.97962 17.9987 4.55469 18.3716 7.87304C18.418 8.28578 18.7676 8.59077 19.1734 8.59077C19.2035 8.59077 19.234 8.5891 19.2646 8.58566C19.708 8.53577 20.0271 8.13597 19.9773 7.69253Z" fill="#88919D"/>
<path d="M16.8981 12.21C16.8956 12.2097 16.8932 12.2094 16.8908 12.209C16.109 12.106 15.338 11.9139 14.601 11.6389C13.667 11.2877 12.6048 11.5142 11.8952 12.2159C11.8941 12.217 11.893 12.2181 11.8919 12.2192L11.2221 12.889C9.55672 11.8373 8.14567 10.4262 7.09399 8.76093L7.76387 8.09105C7.76492 8.08995 7.76598 8.0889 7.76707 8.08781C8.46879 7.3782 8.69527 6.31609 8.34481 5.38379C8.06914 4.64496 7.87707 3.87391 7.77395 3.09215C7.77367 3.08969 7.77328 3.08719 7.77293 3.08473C7.5936 1.81606 6.49239 0.868562 5.21247 0.878992H2.58025C2.50435 0.87907 2.42743 0.882546 2.35161 0.889421C0.943141 1.01669 -0.0992012 2.2661 0.0281033 3.67457C0.0284939 3.67879 0.0288845 3.68297 0.0293533 3.68719C0.329509 6.51351 1.3047 9.26843 2.84954 11.6542C4.25157 13.8597 6.15817 15.7662 8.36367 17.1684C10.7384 18.7077 13.4805 19.6828 16.2939 19.9885C16.2988 19.9891 16.3038 19.9896 16.3087 19.99C16.3853 19.9969 16.463 20.0004 16.54 20.0004C16.5432 20.0004 16.5464 20.0004 16.5496 20.0004C17.9639 19.9947 19.1097 18.8394 19.104 17.4285V14.8022C19.1307 13.5049 18.1842 12.3915 16.8981 12.21ZM17.4882 14.7932V17.4318C17.4904 17.9551 17.0664 18.3825 16.5433 18.3846C16.5154 18.3845 16.4876 18.3836 16.4599 18.3813C13.8983 18.1015 11.4018 17.2127 9.23973 15.8106C9.23766 15.8093 9.23555 15.8079 9.23344 15.8066C7.2245 14.5301 5.48794 12.7935 4.21138 10.7846C4.21013 10.7826 4.20888 10.7806 4.20759 10.7786C2.80017 8.60612 1.9113 6.09754 1.63685 3.5236C1.59298 3.00473 1.97779 2.54555 2.49704 2.49864C2.52505 2.49614 2.55341 2.49481 2.58083 2.49481H5.2161C5.2218 2.49477 5.22759 2.49469 5.23341 2.49473C5.70297 2.49473 6.10536 2.84258 6.17262 3.30797C6.29176 4.20887 6.51329 5.09727 6.83165 5.95051C6.96129 6.29551 6.87809 6.68757 6.61965 6.95015L5.50571 8.0641C5.24856 8.3212 5.19493 8.71851 5.37469 9.03468C6.69645 11.3592 8.62379 13.2865 10.9483 14.6083C11.2645 14.788 11.6618 14.7345 11.9189 14.4772L13.0327 13.3635C13.2952 13.1049 13.6876 13.0216 14.0343 13.152C14.8858 13.4697 15.7744 13.6912 16.6753 13.8104C17.1511 13.879 17.5004 14.2924 17.4885 14.7731C17.4883 14.7798 17.4882 14.7865 17.4882 14.7932Z" fill="#88919D"/>
</g>
<defs>
<clipPath id="clip0">
<rect width="20" height="20" fill="white"/>
</clipPath>
</defs>
</svg>
