<?xml version="1.0"?>
<!--Icons from directory ""-->
<svg xmlns="http://www.w3.org/2000/svg" width="20" height="120" viewBox="0 0 20 120"><svg width="20" height="20" fill="none" id="grid-active" y="0"><path d="M6.936 0H1.829C.821 0 0 .82 0 1.83v5.106c0 1.009.82 1.83 1.83 1.83h5.106c1.009 0 1.83-.821 1.83-1.83V1.829C8.765.821 7.944 0 6.935 0zm.213 6.936a.214.214 0 0 1-.213.213H1.829a.214.214 0 0 1-.213-.213V1.829c0-.117.096-.213.213-.213h5.107c.118 0 .213.096.213.213v5.107z" fill="url(#grid-active-paint0_linear)"/><path d="M18.17 0h-5.106c-1.01 0-1.83.82-1.83 1.83v5.106c0 1.009.821 1.83 1.83 1.83h5.106c1.009 0 1.83-.821 1.83-1.83V1.829C20 .821 19.178 0 18.17 0zm.214 6.936a.214.214 0 0 1-.214.213h-5.106a.214.214 0 0 1-.214-.213V1.829c0-.117.096-.213.214-.213h5.106c.118 0 .214.096.214.213v5.107z" fill="url(#grid-active-paint1_linear)"/><path d="M18.17 11.234h-5.106c-1.009 0-1.83.821-1.83 1.83v5.106c0 1.009.821 1.83 1.83 1.83h5.106c1.009 0 1.83-.821 1.83-1.83v-5.106c0-1.009-.821-1.83-1.83-1.83zm.214 6.936a.214.214 0 0 1-.214.214h-5.106a.214.214 0 0 1-.214-.214v-5.106c0-.118.096-.214.214-.214h5.106c.118 0 .214.096.214.214v5.106z" fill="url(#grid-active-paint2_linear)"/><path d="M6.936 11.234H1.829c-1.008 0-1.829.82-1.829 1.83v5.106C0 19.18.82 20 1.83 20h5.106c1.009 0 1.83-.821 1.83-1.83v-5.106c0-1.009-.821-1.83-1.83-1.83zm.213 6.936a.214.214 0 0 1-.213.214H1.829a.214.214 0 0 1-.213-.214v-5.106c0-.118.096-.214.213-.214h5.107c.118 0 .213.096.213.214v5.106z" fill="url(#grid-active-paint3_linear)"/><defs><linearGradient id="grid-active-paint0_linear" x1="4.383" x2="4.383" y2="8.765" gradientUnits="userSpaceOnUse"><stop offset="1" stop-color="#444"/><stop offset="1" stop-color="#fff" stop-opacity="0"/></linearGradient><linearGradient id="grid-active-paint1_linear" x1="15.617" x2="15.617" y2="8.765" gradientUnits="userSpaceOnUse"><stop offset="1" stop-color="#444"/><stop offset="1" stop-color="#fff" stop-opacity="0"/></linearGradient><linearGradient id="grid-active-paint2_linear" x1="15.617" y1="11.234" x2="15.617" y2="20" gradientUnits="userSpaceOnUse"><stop offset="1" stop-color="#444"/><stop offset="1" stop-color="#fff" stop-opacity="0"/></linearGradient><linearGradient id="grid-active-paint3_linear" x1="4.383" y1="11.234" x2="4.383" y2="20" gradientUnits="userSpaceOnUse"><stop offset="1" stop-color="#444"/><stop offset="1" stop-color="#fff" stop-opacity="0"/></linearGradient></defs></svg><svg width="20" height="20" fill="none" id="grid-hover" y="20"><path d="M6.936 0H1.829C.821 0 0 .82 0 1.83v5.106c0 1.009.82 1.83 1.83 1.83h5.106c1.009 0 1.83-.821 1.83-1.83V1.829C8.765.821 7.944 0 6.935 0zm.213 6.936a.214.214 0 0 1-.213.213H1.829a.214.214 0 0 1-.213-.213V1.829c0-.117.096-.213.213-.213h5.107c.118 0 .213.096.213.213v5.107z" fill="url(#grid-hover-paint0_linear)"/><path d="M18.17 0h-5.106c-1.01 0-1.83.82-1.83 1.83v5.106c0 1.009.821 1.83 1.83 1.83h5.106c1.009 0 1.83-.821 1.83-1.83V1.829C20 .821 19.178 0 18.17 0zm.214 6.936a.214.214 0 0 1-.214.213h-5.106a.214.214 0 0 1-.214-.213V1.829c0-.117.096-.213.214-.213h5.106c.118 0 .214.096.214.213v5.107z" fill="url(#grid-hover-paint1_linear)"/><path d="M18.17 11.234h-5.106c-1.009 0-1.83.821-1.83 1.83v5.106c0 1.009.821 1.83 1.83 1.83h5.106c1.009 0 1.83-.821 1.83-1.83v-5.106c0-1.009-.821-1.83-1.83-1.83zm.214 6.936a.214.214 0 0 1-.214.214h-5.106a.214.214 0 0 1-.214-.214v-5.106c0-.118.096-.214.214-.214h5.106c.118 0 .214.096.214.214v5.106z" fill="url(#grid-hover-paint2_linear)"/><path d="M6.936 11.234H1.829c-1.008 0-1.829.82-1.829 1.83v5.106C0 19.18.82 20 1.83 20h5.106c1.009 0 1.83-.821 1.83-1.83v-5.106c0-1.009-.821-1.83-1.83-1.83zm.213 6.936a.214.214 0 0 1-.213.214H1.829a.214.214 0 0 1-.213-.214v-5.106c0-.118.096-.214.213-.214h5.107c.118 0 .213.096.213.214v5.106z" fill="url(#grid-hover-paint3_linear)"/><defs><linearGradient id="grid-hover-paint0_linear" x1="4.383" x2="4.383" y2="8.765" gradientUnits="userSpaceOnUse"><stop offset="1" stop-color="#3D697F"/><stop offset="1" stop-color="#fff" stop-opacity="0"/></linearGradient><linearGradient id="grid-hover-paint1_linear" x1="15.617" x2="15.617" y2="8.765" gradientUnits="userSpaceOnUse"><stop offset="1" stop-color="#3D697F"/><stop offset="1" stop-color="#fff" stop-opacity="0"/></linearGradient><linearGradient id="grid-hover-paint2_linear" x1="15.617" y1="11.234" x2="15.617" y2="20" gradientUnits="userSpaceOnUse"><stop offset="1" stop-color="#3D697F"/><stop offset="1" stop-color="#fff" stop-opacity="0"/></linearGradient><linearGradient id="grid-hover-paint3_linear" x1="4.383" y1="11.234" x2="4.383" y2="20" gradientUnits="userSpaceOnUse"><stop offset="1" stop-color="#3D697F"/><stop offset="1" stop-color="#fff" stop-opacity="0"/></linearGradient></defs></svg><svg width="20" height="20" fill="none" id="jour-active" y="40"><g clip-path="url(#jour-active-clip0)"><path d="M19.553 4.681L10.361.085a.808.808 0 0 0-.722 0L.447 4.681a.808.808 0 0 0 0 1.445l9.192 4.596a.808.808 0 0 0 .722 0l9.192-4.596a.808.808 0 0 0 0-1.445zM10 9.097L2.614 5.404 10 1.71l7.385 3.693L10 9.097z" fill="url(#jour-active-paint0_linear)"/><path d="M19.915 14.236a.808.808 0 0 0-1.084-.362L10 18.29l-8.83-4.415a.808.808 0 0 0-.723 1.445l9.192 4.596a.807.807 0 0 0 .722 0l9.192-4.596c.4-.2.561-.685.361-1.084z" fill="url(#jour-active-paint1_linear)"/><path d="M19.915 9.638a.808.808 0 0 0-1.084-.361L10 13.692 1.17 9.277a.808.808 0 0 0-.723 1.445l9.192 4.596a.808.808 0 0 0 .722 0l9.192-4.596c.4-.2.561-.685.361-1.084z" fill="url(#jour-active-paint2_linear)"/></g><defs><linearGradient id="jour-active-paint0_linear" x1="10" x2="10" y2="10.808" gradientUnits="userSpaceOnUse"><stop offset="1" stop-color="#444"/><stop offset="1" stop-color="#fff" stop-opacity="0"/></linearGradient><linearGradient id="jour-active-paint1_linear" x1="10" y1="13.789" x2="10" y2="20.001" gradientUnits="userSpaceOnUse"><stop offset="1" stop-color="#444"/><stop offset="1" stop-color="#fff" stop-opacity="0"/></linearGradient><linearGradient id="jour-active-paint2_linear" x1="10" y1="9.191" x2="10" y2="15.403" gradientUnits="userSpaceOnUse"><stop offset="1" stop-color="#444"/><stop offset="1" stop-color="#fff" stop-opacity="0"/></linearGradient><clipPath id="jour-active-clip0"><path fill="#fff" d="M0 0h20v20H0z"/></clipPath></defs></svg><svg width="20" height="20" fill="none" id="jour-hover" y="60"><g clip-path="url(#jour-hover-clip0)"><path d="M19.553 4.681L10.361.085a.808.808 0 0 0-.722 0L.447 4.681a.808.808 0 0 0 0 1.445l9.192 4.596a.808.808 0 0 0 .722 0l9.192-4.596a.808.808 0 0 0 0-1.445zM10 9.097L2.614 5.404 10 1.71l7.385 3.693L10 9.097z" fill="url(#jour-hover-paint0_linear)"/><path d="M19.915 14.236a.808.808 0 0 0-1.084-.362L10 18.29l-8.83-4.415a.808.808 0 0 0-.723 1.445l9.192 4.596a.807.807 0 0 0 .722 0l9.192-4.596c.4-.2.561-.685.361-1.084z" fill="url(#jour-hover-paint1_linear)"/><path d="M19.915 9.638a.808.808 0 0 0-1.084-.361L10 13.692 1.17 9.277a.808.808 0 0 0-.723 1.445l9.192 4.596a.808.808 0 0 0 .722 0l9.192-4.596c.4-.2.561-.685.361-1.084z" fill="url(#jour-hover-paint2_linear)"/></g><defs><linearGradient id="jour-hover-paint0_linear" x1="10" x2="10" y2="10.808" gradientUnits="userSpaceOnUse"><stop offset="1" stop-color="#3D697F"/><stop offset="1" stop-color="#fff" stop-opacity="0"/></linearGradient><linearGradient id="jour-hover-paint1_linear" x1="10" y1="13.789" x2="10" y2="20.001" gradientUnits="userSpaceOnUse"><stop offset="1" stop-color="#3D697F"/><stop offset="1" stop-color="#fff" stop-opacity="0"/></linearGradient><linearGradient id="jour-hover-paint2_linear" x1="10" y1="9.191" x2="10" y2="15.403" gradientUnits="userSpaceOnUse"><stop offset="1" stop-color="#3D697F"/><stop offset="1" stop-color="#fff" stop-opacity="0"/></linearGradient><clipPath id="jour-hover-clip0"><path fill="#fff" d="M0 0h20v20H0z"/></clipPath></defs></svg><svg width="20" height="20" fill="none" id="like-active" y="80"><g clip-path="url(#like-active-clip0)"><path d="M19.339 7.511a2.63 2.63 0 0 0-2.156-1.077h-4.39V3.566A3.57 3.57 0 0 0 9.226 0a.808.808 0 0 0-.738.48L4.812 8.753a.808.808 0 0 0-.07.328v10.111c0 .446.362.808.808.808H15.94a2.646 2.646 0 0 0 2.617-2.248l1.268-8.274a2.63 2.63 0 0 0-.485-1.967zm-1.112 1.723l-1.269 8.274a1.035 1.035 0 0 1-1.019.876H6.358V9.252L9.723 1.68c.836.22 1.454.982 1.454 1.886v3.676c0 .447.361.808.808.808h5.212a1.024 1.024 0 0 1 .841.42c.163.221.23.493.189.764z" fill="url(#like-active-paint0_linear)"/><path d="M5.55 18.385H2.793c-.568 0-1.03-.463-1.03-1.03V10.92c0-.569.462-1.03 1.03-1.03H5.55a.808.808 0 0 0 0-1.617H2.793A2.65 2.65 0 0 0 .146 10.92v6.434A2.65 2.65 0 0 0 2.793 20H5.55a.808.808 0 1 0 0-1.615z" fill="url(#like-active-paint1_linear)"/></g><defs><linearGradient id="like-active-paint0_linear" x1="12.299" x2="12.299" y2="20" gradientUnits="userSpaceOnUse"><stop offset="1" stop-color="#444"/><stop offset="1" stop-color="#fff" stop-opacity="0"/></linearGradient><linearGradient id="like-active-paint1_linear" x1="3.252" y1="8.273" x2="3.252" y2="20" gradientUnits="userSpaceOnUse"><stop offset="1" stop-color="#444"/><stop offset="1" stop-color="#fff" stop-opacity="0"/></linearGradient><clipPath id="like-active-clip0"><path fill="#fff" d="M0 0h20v20H0z"/></clipPath></defs></svg><svg width="20" height="20" fill="none" id="like-hover" y="100"><g clip-path="url(#like-hover-clip0)"><path d="M19.339 7.511a2.63 2.63 0 0 0-2.156-1.077h-4.39V3.566A3.57 3.57 0 0 0 9.226 0a.808.808 0 0 0-.738.48L4.812 8.753a.808.808 0 0 0-.07.328v10.111c0 .446.362.808.808.808H15.94a2.646 2.646 0 0 0 2.617-2.248l1.268-8.274a2.63 2.63 0 0 0-.485-1.967zm-1.112 1.723l-1.269 8.274a1.035 1.035 0 0 1-1.019.876H6.358V9.252L9.723 1.68c.836.22 1.454.982 1.454 1.886v3.676c0 .447.361.808.808.808h5.212a1.024 1.024 0 0 1 .841.42c.163.221.23.493.189.764z" fill="url(#like-hover-paint0_linear)"/><path d="M5.55 18.385H2.793c-.568 0-1.03-.463-1.03-1.03V10.92c0-.569.462-1.03 1.03-1.03H5.55a.808.808 0 0 0 0-1.617H2.793A2.65 2.65 0 0 0 .146 10.92v6.434A2.65 2.65 0 0 0 2.793 20H5.55a.808.808 0 1 0 0-1.615z" fill="url(#like-hover-paint1_linear)"/></g><defs><linearGradient id="like-hover-paint0_linear" x1="12.299" x2="12.299" y2="20" gradientUnits="userSpaceOnUse"><stop offset="1" stop-color="#3D697F"/><stop offset="1" stop-color="#fff" stop-opacity="0"/></linearGradient><linearGradient id="like-hover-paint1_linear" x1="3.252" y1="8.273" x2="3.252" y2="20" gradientUnits="userSpaceOnUse"><stop offset="1" stop-color="#3D697F"/><stop offset="1" stop-color="#fff" stop-opacity="0"/></linearGradient><clipPath id="like-hover-clip0"><path fill="#fff" d="M0 0h20v20H0z"/></clipPath></defs></svg></svg>
