<svg width="166" height="35" fill="none" xmlns="http://www.w3.org/2000/svg"><g clip-path="url(#clip0)"><path d="M51.135 14.843c.682 0 1.303.113 1.865.34a4.2 4.2 0 0 1 1.443.903c.415.387.729.855.943 1.403.227.548.34 1.156.34 1.825 0 .655-.113 1.263-.34 1.824a4.122 4.122 0 0 1-.943 1.404 4.456 4.456 0 0 1-1.443.922 5.201 5.201 0 0 1-1.865.32H45V9.75h9.483v3.428H48.71v1.665h2.426zm-.702 5.834c.415 0 .749-.127 1.003-.38.254-.268.38-.602.38-1.003 0-.401-.126-.729-.38-.983s-.588-.38-1.003-.38H48.71v2.746h1.724zM63.685 12.586c.829 0 1.59.147 2.285.441.696.28 1.29.675 1.785 1.183a5.31 5.31 0 0 1 1.183 1.825c.28.708.42 1.483.42 2.325a6.26 6.26 0 0 1-.42 2.326 5.311 5.311 0 0 1-1.183 1.825 5.38 5.38 0 0 1-1.785 1.202 6.047 6.047 0 0 1-2.285.421c-.495 0-.963-.066-1.404-.2a5.104 5.104 0 0 1-1.243-.521v4.27H57.37V12.947h2.526l.461.862a5.167 5.167 0 0 1 1.524-.902 5.027 5.027 0 0 1 1.805-.321zm-.502 8.26c.348 0 .669-.06.963-.18.294-.134.548-.308.762-.521.227-.228.4-.488.521-.782.12-.308.18-.642.18-1.003 0-.722-.226-1.316-.681-1.784-.454-.468-1.036-.702-1.744-.702-.709 0-1.29.234-1.745.702-.454.468-.681 1.062-.681 1.784s.227 1.317.681 1.785c.455.468 1.036.701 1.745.701zM76.51 24.134c-.883 0-1.698-.14-2.447-.42a6.177 6.177 0 0 1-1.924-1.203 5.804 5.804 0 0 1-1.263-1.825 6.011 6.011 0 0 1-.441-2.326c0-.842.147-1.61.44-2.305a5.515 5.515 0 0 1 1.264-1.825 5.724 5.724 0 0 1 1.925-1.203 6.634 6.634 0 0 1 2.446-.441c.882 0 1.69.147 2.426.441.748.28 1.39.682 1.924 1.203.549.508.97 1.116 1.264 1.825.307.695.46 1.463.46 2.305 0 .842-.153 1.617-.46 2.326a5.387 5.387 0 0 1-1.264 1.825 5.874 5.874 0 0 1-1.924 1.202c-.735.281-1.544.421-2.426.421zm0-3.348c.681 0 1.236-.22 1.664-.661.44-.455.661-1.043.661-1.765s-.22-1.303-.661-1.744c-.428-.454-.983-.682-1.664-.682-.682 0-1.244.228-1.685.682-.44.441-.661 1.022-.661 1.744s.22 1.31.661 1.765c.441.44 1.003.661 1.685.661zM90.507 13.413c.789 0 1.51.127 2.165.381a4.798 4.798 0 0 1 1.685 1.083 4.633 4.633 0 0 1 1.082 1.644c.268.642.401 1.35.401 2.125 0 .829-.14 1.584-.42 2.266a4.898 4.898 0 0 1-1.204 1.724c-.507.481-1.129.856-1.864 1.123-.722.254-1.53.38-2.426.38-.949 0-1.805-.153-2.567-.46a5.204 5.204 0 0 1-1.904-1.323c-.522-.589-.923-1.297-1.203-2.126-.267-.829-.401-1.77-.401-2.827 0-4.624 2.079-7.431 6.235-8.42L94.096 8v3.469l-4.01.982c-1.51.36-2.42 1.043-2.727 2.045.963-.722 2.012-1.083 3.148-1.083zm-.581 7.499c.655 0 1.196-.214 1.624-.642.44-.44.661-1.002.661-1.684 0-.681-.213-1.236-.641-1.664-.428-.441-.976-.662-1.644-.662-.668 0-1.216.221-1.645.662-.427.428-.641.982-.641 1.664 0 .682.214 1.243.641 1.684.428.428.977.642 1.645.642zM109.095 12.938v10.827h-2.867l-.321-.762c-.454.36-.956.641-1.503.842a5.1 5.1 0 0 1-1.765.3c-.829 0-1.59-.14-2.285-.42a5.605 5.605 0 0 1-1.805-1.203 5.525 5.525 0 0 1-1.183-1.845 6.259 6.259 0 0 1-.42-2.326c0-.842.14-1.61.42-2.305a5.307 5.307 0 0 1 1.183-1.825 5.347 5.347 0 0 1 1.805-1.183 6.044 6.044 0 0 1 2.285-.42 5.157 5.157 0 0 1 3.309 1.162l.381-.842h2.766zm-5.954 7.9c.347 0 .668-.06.962-.18.294-.135.548-.308.762-.522.214-.227.381-.488.501-.782.12-.308.181-.635.181-.983 0-.347-.061-.668-.181-.962a2.24 2.24 0 0 0-.501-.782 2.154 2.154 0 0 0-.762-.521 2.299 2.299 0 0 0-.962-.2c-.722 0-1.31.233-1.765.701-.441.468-.661 1.056-.661 1.764 0 .348.06.675.18.983.12.294.287.555.501.782.214.214.468.387.762.521.307.12.635.18.983.18zM121.854 12.953V23.78h-3.709v-3.81h-2.967v3.81h-3.709V12.953h3.709v3.73h2.967v-3.73h3.709zM130.652 23.78l-2.707-4.591v4.59h-3.729V12.954h3.729v4.25l2.586-4.25h4.171l-3.389 5.173 3.73 5.654h-4.391zM135.882 20.309h3.609v3.468h-3.609V20.31zM148.034 12.586c.829 0 1.591.147 2.286.441.695.28 1.29.675 1.784 1.183a5.287 5.287 0 0 1 1.183 1.825c.281.708.421 1.483.421 2.325 0 .842-.14 1.617-.421 2.326a5.289 5.289 0 0 1-1.183 1.825 5.38 5.38 0 0 1-1.784 1.202 6.05 6.05 0 0 1-2.286.421c-.494 0-.962-.066-1.403-.2a5.108 5.108 0 0 1-1.243-.521v4.27h-3.669V12.947h2.526l.461.862a5.175 5.175 0 0 1 1.524-.902 5.025 5.025 0 0 1 1.804-.321zm-.501 8.26c.348 0 .669-.06.963-.18.294-.134.548-.308.761-.521a2.36 2.36 0 0 0 .522-.782c.12-.308.18-.642.18-1.003 0-.722-.227-1.316-.682-1.784-.454-.468-1.035-.702-1.744-.702-.708 0-1.289.234-1.744.702-.454.468-.682 1.062-.682 1.784s.228 1.317.682 1.785c.455.468 1.036.701 1.744.701zM166.204 12.953L161.672 23.3c-.361.828-.728 1.53-1.102 2.105-.361.575-.762 1.036-1.203 1.383-.428.361-.909.622-1.444.782-.535.16-1.149.24-1.844.24h-1.283v-3.207h1.022c.361 0 .662-.027.902-.08.241-.054.448-.147.622-.281.173-.12.327-.294.461-.521.133-.227.261-.508.381-.842l-4.471-9.925h4.05l2.286 5.955 2.145-5.955h4.01z" fill="#000"/><path d="M35 0H0v35h35V0z" fill="#FEDD2E"/><path d="M18.617 14.483c1.069 0 2.043.178 2.923.534.88.335 1.634.807 2.263 1.414a5.91 5.91 0 0 1 1.477 2.2c.356.86.534 1.813.534 2.86a7.55 7.55 0 0 1-.534 2.86 6.456 6.456 0 0 1-1.477 2.2 6.985 6.985 0 0 1-2.263 1.446c-.88.335-1.854.503-2.923.503H9v-22h14.866v5.374h-9.052v2.609h3.803zm-1.1 9.145c.65 0 1.174-.198 1.572-.597.398-.419.597-.942.597-1.571s-.2-1.142-.597-1.54c-.398-.398-.922-.597-1.572-.597h-2.703v4.305h2.703z" fill="#000"/></g><defs><clipPath id="clip0"><path fill="#fff" d="M0 0h166v35H0z"/></clipPath></defs></svg>