<svg xmlns="http://www.w3.org/2000/svg">
    <defs>
        <style>
        .img { display: none }
        .img:target { display: inline }
        </style>
    </defs>

    <svg viewBox="0 0 16 16">
        <g id="chart" class="img">
            <rect x="6" width="4" height="16"/>
            <rect x="12" y="4" width="4" height="12"/>
            <rect x="0" y="8" width="4" height="8"/>
        </g>
    </svg>

    <svg viewBox="0 0 48 48">
        <g id="Page-1" class="img">
            <rect x="0" y="0" width="48" height="48"/>
        </g>
    </svg>

    <svg viewBox="0 0 200 120">
        <g id="icon-1" class="img" fill="#4990E2">
            <rect id="Rectangle" x="0" y="0" width="200" height="120"/>
        </g>
    </svg>

    <svg viewBox="0 0 200 120">
        <g id="icon-2" class="img" fill="#D0011B">
            <rect id="Rectangle" x="0" y="0" width="200" height="120"/>
        </g>
    </svg>

    <svg viewBox="0 0 200 120">
        <g id="icon-3" class="img" fill="#417505">
            <rect id="Rectangle" x="0" y="0" width="200" height="120"/>
        </g>
    </svg>

    <svg viewBox="0 0 128 128">
        <g id="facebook" class="img" fill="#000000">
            <g id="Facebook">
                <path d="M63.9996,1 C29.2059063,1 1,29.205966 1,64 C1,98.794034 29.2059063,127 63.9996,127 C98.7932936,127 127,98.7937673 127,64 C127,29.2062327 98.7932936,1 63.9996,1 L63.9996,1 Z M83.3765432,38.9811292 L75.798041,38.984596 C69.8084161,38.984596 68.7091626,41.8308739 68.7091626,46.0076194 L68.7091626,55.1088817 L82.920521,55.1088817 L81.0604305,69.7762934 L68.7091626,69.7762934 L68.7091626,106.578163 L53.7751023,106.578163 L53.7751023,69.7762934 L41.2411588,69.7762934 L41.2411588,55.1088817 L53.7751023,55.1088817 L53.7751023,44.5795469 C53.7751023,32.2330531 61.2730673,25.5103116 72.2872034,25.5103116 C77.5626602,25.5103116 82.043145,25.9033983 83.3765432,26.0788738 L83.3765432,38.9813959 L83.3765432,38.9811292 Z"/>
            </g>
        </g>
    </svg>

    <svg viewBox="0 0 20 20">
    <g id="test" class="img">
        <path d="M6.93594 0H1.82922C0.820625 0 0 0.820625 0 1.82922V6.93598C0 7.94461 0.820625 8.7652 1.82922 8.7652H6.93598C7.94461 8.7652 8.7652 7.94457 8.7652 6.93594V1.82922C8.7652 0.820625 7.94461 0 6.93594 0ZM7.14941 6.93594C7.14941 7.05363 7.05363 7.14941 6.93594 7.14941H1.82922C1.71156 7.14941 1.61578 7.05363 1.61578 6.93594V1.82922C1.61578 1.71156 1.71156 1.61578 1.82922 1.61578H6.93594C7.05363 1.61578 7.14941 1.71152 7.14941 1.82922V6.93594Z" fill="url(#paint0_linear)"/>
        <path d="M18.1703 0H13.0636C12.0549 0 11.2344 0.820625 11.2344 1.82922V6.93594C11.2344 7.94461 12.055 8.7652 13.0636 8.7652H18.1703C19.179 8.7652 19.9995 7.94457 19.9995 6.93594V1.82922C19.9995 0.820625 19.1789 0 18.1703 0ZM18.3838 6.93594C18.3838 7.05363 18.288 7.14941 18.1703 7.14941H13.0636C12.9459 7.14941 12.8502 7.05363 12.8502 6.93594V1.82922C12.8502 1.71156 12.9459 1.61578 13.0636 1.61578H18.1703C18.288 1.61578 18.3838 1.71152 18.3838 1.82922V6.93594Z" fill="url(#paint1_linear)"/>
        <path d="M18.1703 11.2344H13.0636C12.055 11.2344 11.2344 12.055 11.2344 13.0636V18.1704C11.2344 19.179 12.055 19.9996 13.0636 19.9996H18.1703C19.1789 19.9996 19.9995 19.1789 19.9995 18.1704V13.0636C19.9995 12.055 19.179 11.2344 18.1703 11.2344ZM18.3838 18.1704C18.3838 18.288 18.288 18.3838 18.1703 18.3838H13.0636C12.9459 18.3838 12.8502 18.288 12.8502 18.1704V13.0636C12.8502 12.9459 12.9459 12.8502 13.0636 12.8502H18.1703C18.288 12.8502 18.3838 12.9459 18.3838 13.0636V18.1704Z" fill="url(#paint2_linear)"/>
        <path d="M6.93594 11.2344H1.82922C0.820625 11.2344 0 12.0549 0 13.0636V18.1704C0 19.1789 0.820625 19.9996 1.82922 19.9996H6.93598C7.94461 19.9996 8.7652 19.1789 8.7652 18.1704V13.0636C8.7652 12.055 7.94461 11.2344 6.93594 11.2344ZM7.14941 18.1704C7.14941 18.288 7.05363 18.3838 6.93594 18.3838H1.82922C1.71156 18.3838 1.61578 18.288 1.61578 18.1704V13.0636C1.61578 12.9459 1.71152 12.8502 1.82922 12.8502H6.93594C7.05363 12.8502 7.14941 12.9459 7.14941 13.0636V18.1704Z" fill="url(#paint3_linear)"/>
        <defs>
            <linearGradient id="paint0_linear" x1="4.3826" y1="0" x2="4.3826" y2="8.7652" gradientUnits="userSpaceOnUse">
            <stop offset="0.9999" stop-color="#444444"/>
            <stop offset="1" stop-color="white" stop-opacity="0"/>
            </linearGradient>
            <linearGradient id="paint1_linear" x1="15.617" y1="0" x2="15.617" y2="8.7652" gradientUnits="userSpaceOnUse">
            <stop offset="0.9999" stop-color="#444444"/>
            <stop offset="1" stop-color="white" stop-opacity="0"/>
            </linearGradient>
            <linearGradient id="paint2_linear" x1="15.617" y1="11.2344" x2="15.617" y2="19.9996" gradientUnits="userSpaceOnUse">
            <stop offset="0.9999" stop-color="#444444"/>
            <stop offset="1" stop-color="white" stop-opacity="0"/>
            </linearGradient>
            <linearGradient id="paint3_linear" x1="4.3826" y1="11.2344" x2="4.3826" y2="19.9996" gradientUnits="userSpaceOnUse">
            <stop offset="0.9999" stop-color="#444444"/>
            <stop offset="1" stop-color="white" stop-opacity="0"/>
            </linearGradient>
        </defs>
        </g>
    </svg>

    <!-- more "svg > g" tags -->
</svg>